<?xml version="1.0" standalone="no"?>
<!DOCTYPE svg PUBLIC "-//W3C//DTD SVG 20010904//EN"
 "http://www.w3.org/TR/2001/REC-SVG-20010904/DTD/svg10.dtd">
<svg version="1.0" xmlns="http://www.w3.org/2000/svg"
 width="278.000000pt" height="278.000000pt" viewBox="0 0 278.000000 278.000000"
 preserveAspectRatio="xMidYMid meet">

<g transform="translate(0.000000,278.000000) scale(0.100000,-0.100000)"
fill="#000000" stroke="none">
<path d="M0 1390 l0 -1390 1390 0 1390 0 0 1390 0 1390 -1390 0 -1390 0 0
-1390z m1476 1108 c37 -68 92 -166 123 -218 30 -52 128 -223 218 -380 l163
-284 -30 -41 c-17 -22 -45 -59 -62 -82 -18 -24 -35 -43 -40 -43 -4 0 -18 19
-31 43 -59 102 -232 405 -250 437 -11 19 -38 69 -60 110 -79 144 -102 183
-112 187 -6 2 -32 -36 -58 -84 -26 -49 -83 -151 -127 -228 -44 -77 -121 -213
-171 -302 -50 -90 -95 -163 -99 -163 -4 0 -35 37 -70 81 -49 64 -61 85 -53 98
23 37 451 785 518 906 46 82 55 96 64 91 5 -3 39 -61 77 -128z m-871 -594 c51
-22 26 -30 -47 -15 -28 6 -53 9 -56 7 -2 -3 5 -17 15 -33 108 -157 391 -563
538 -773 178 -254 257 -371 253 -375 -7 -7 -263 57 -275 69 -11 10 -143 234
-143 243 0 2 -17 32 -38 66 -21 34 -66 109 -99 167 -33 58 -89 155 -123 215
-244 423 -307 535 -303 539 4 4 159 -58 278 -110z m1847 74 c-11 -18 -45 -76
-74 -128 -30 -52 -109 -188 -176 -302 -67 -114 -133 -229 -148 -255 -14 -27
-49 -87 -77 -135 -29 -48 -90 -153 -136 -233 -95 -163 -68 -143 -256 -189 -55
-14 -101 -23 -104 -20 -5 5 39 72 155 234 45 63 111 156 146 207 103 149 355
510 435 621 41 57 72 106 70 109 -3 2 -34 0 -69 -5 -58 -9 -78 -8 -67 2 8 8
294 124 307 125 10 1 8 -8 -6 -31z m-1756 -675 c15 -27 41 -67 56 -91 l29 -42
-65 -116 c-37 -64 -66 -120 -66 -125 0 -5 21 -6 48 -3 56 8 48 -5 -18 -29 -25
-8 -114 -41 -198 -73 -84 -31 -155 -54 -158 -51 -3 3 30 65 74 138 44 74 106
181 139 239 85 148 117 200 125 200 4 0 19 -21 34 -47z m1451 20 c4 -10 16
-34 28 -53 20 -32 190 -325 238 -410 10 -19 28 -47 38 -62 11 -15 16 -28 12
-31 -11 -5 -413 145 -413 155 0 4 20 5 45 1 25 -3 45 -3 45 1 0 3 -30 58 -66
122 l-65 115 29 47 c16 26 42 66 56 90 28 45 43 52 53 25z m-925 -633 c84 -22
163 -40 174 -40 12 0 90 18 174 41 83 22 154 38 157 35 11 -10 -72 -120 -97
-127 -14 -5 -51 -15 -82 -24 l-57 -16 -12 -57 c-49 -229 -75 -333 -84 -333 -5
0 -29 86 -52 191 -23 106 -44 194 -46 196 -3 3 -42 17 -88 32 -79 25 -86 30
-116 77 -31 47 -39 65 -28 65 2 0 73 -18 157 -40z m-180 -20 c23 0 63 -70 46
-81 -7 -5 -63 -9 -125 -9 -109 0 -139 -8 -115 -32 6 -6 50 -11 99 -12 48 0 93
-4 100 -9 10 -6 43 -63 43 -74 0 -1 -54 -3 -119 -3 -66 0 -122 -4 -125 -9 -4
-5 -3 -16 0 -25 5 -13 25 -16 114 -16 l108 0 22 -36 c12 -19 20 -37 18 -40 -9
-9 -323 -11 -341 -2 -15 8 -17 25 -17 156 1 81 4 157 7 169 6 28 30 32 163 27
58 -2 112 -3 122 -4z m998 -174 c0 -149 -2 -175 -16 -180 -20 -8 -318 -8 -338
0 -13 5 -16 26 -16 127 0 119 1 122 32 174 l32 53 153 0 153 0 0 -174z"/>
<path d="M1787 573 c-4 -3 -7 -43 -7 -87 l0 -81 83 0 82 0 2 88 1 87 -77 0
c-43 0 -81 -3 -84 -7z"/>
</g>
</svg>
